name GIL06_fast3.mot
datacolumns 153
datarows 4
range 0.82499999 0.85000002
endheader

                time	           pelvis_tx	           pelvis_ty	           pelvis_tz	         pelvis_tilt	         pelvis_list	     pelvis_rotation	       hip_flexion_r	     hip_adduction_r	      hip_rotation_r	        knee_angle_r	       ankle_angle_r	    subtalar_angle_r	         mtp_angle_r	       hip_flexion_l	     hip_adduction_l	      hip_rotation_l	        knee_angle_l	       ankle_angle_l	    subtalar_angle_l	         mtp_angle_l	    lumbar_extension	      lumbar_bending	     lumbar_rotation	     ground_force_vx	     ground_force_vy	     ground_force_vz	     ground_force_px	     ground_force_py	     ground_force_pz	     ground_force_vx	     ground_force_vy	     ground_force_vz	     ground_force_px	     ground_force_py	     ground_force_pz	     ground_torque_x	     ground_torque_y	     ground_torque_z	     ground_torque_x	     ground_torque_y	     ground_torque_z	    ground_marker_px	    ground_marker_py	    ground_marker_pz	    ground_marker_px	    ground_marker_py	    ground_marker_pz	    ground_marker_px	    ground_marker_py	    ground_marker_pz	    ground_marker_px	    ground_marker_py	    ground_marker_pz	    ground_marker_px	    ground_marker_py	    ground_marker_pz	    ground_marker_px	    ground_marker_py	    ground_marker_pz	    ground_marker_px	    ground_marker_py	    ground_marker_pz	    ground_marker_px	    ground_marker_py	    ground_marker_pz	    ground_marker_px	    ground_marker_py	    ground_marker_pz	    ground_marker_px	    ground_marker_py	    ground_marker_pz	    ground_marker_px	    ground_marker_py	    ground_marker_pz	    ground_marker_px	    ground_marker_py	    ground_marker_pz	    ground_marker_px	    ground_marker_py	    ground_marker_pz	    ground_marker_px	    ground_marker_py	    ground_marker_pz	    ground_marker_px	    ground_marker_py	    ground_marker_pz	    ground_marker_px	    ground_marker_py	    ground_marker_pz	    ground_marker_px	    ground_marker_py	    ground_marker_pz	    ground_marker_px	    ground_marker_py	    ground_marker_pz	    ground_marker_px	    ground_marker_py	    ground_marker_pz	    ground_marker_px	    ground_marker_py	    ground_marker_pz	    ground_marker_px	    ground_marker_py	    ground_marker_pz	    ground_marker_px	    ground_marker_py	    ground_marker_pz	    ground_marker_px	    ground_marker_py	    ground_marker_pz	    ground_marker_px	    ground_marker_py	    ground_marker_pz	    ground_marker_px	    ground_marker_py	    ground_marker_pz	    ground_marker_px	    ground_marker_py	    ground_marker_pz	    ground_marker_px	    ground_marker_py	    ground_marker_pz	    ground_marker_px	    ground_marker_py	    ground_marker_pz	    ground_marker_px	    ground_marker_py	    ground_marker_pz	    ground_marker_px	    ground_marker_py	    ground_marker_pz	    ground_marker_px	    ground_marker_py	    ground_marker_pz	    ground_marker_px	    ground_marker_py	    ground_marker_pz	    ground_marker_px	    ground_marker_py	    ground_marker_pz	    ground_marker_px	    ground_marker_py	    ground_marker_pz	    ground_marker_px	    ground_marker_py	    ground_marker_pz	    ground_marker_px	    ground_marker_py	    ground_marker_pz	    ground_marker_px	    ground_marker_py	    ground_marker_pz	
          0.82499999	          1.04108548	          0.85492563	         -0.23233300	         -1.51391220	         -1.00905049	         -2.37840796	          1.69518948	          6.81319523	          2.03297544	        -10.28847408	          5.63514996	          0.00000000	          0.00000000	         29.81709290	         -6.25306749	          0.67922610	        -54.98567963	          5.40851212	          0.00000000	          0.00000000	         -9.05398178	          3.92160344	          2.85710001	         -8.96985892	        646.38614333	        -17.78697346	          0.93045874	          0.00000000	         -0.19646590	          0.00000000	          0.00000000	          0.00000000	          0.36114635	          0.00000000	         -0.29367966	          0.00000000	          4.14188379	          0.00000000	          0.00000000	          0.00000000	          0.00000000	          0.93646872	          0.77399194	         -0.23522726	          0.91404778	          0.77892631	         -0.15700833	          0.91968757	          0.77475464	         -0.31247926	          0.91671330	          0.41627172	         -0.19043069	          1.10675597	          0.42909271	         -0.33937138	          0.85502672	          0.06147639	         -0.20417927	          0.94779140	          0.10820125	         -0.30643374	          1.04108548	          0.85492563	         -0.23233300	          1.03663969	          0.85821426	         -0.10977376	          1.04553139	          0.85163701	         -0.35489225	          0.79490596	          0.91583729	         -0.21316071	          0.79488564	          0.91208762	         -0.26600429	          0.91670269	          0.40970999	         -0.11923242	          1.10638833	          0.43444067	         -0.41067013	          0.90033096	          0.43352175	         -0.27278927	          1.12048054	          0.41516358	         -0.24666709	          0.84615248	          0.06156759	         -0.16671610	          0.93291539	          0.11183318	         -0.34284481	          0.86547333	          0.06606676	         -0.23955962	          0.95131803	          0.12716667	         -0.26678154	          0.83263320	          1.34574282	         -0.23927106	          0.96081191	          1.28088641	         -0.20859301	          0.96073854	          1.28500569	         -0.29212162	          0.94380182	          1.27726948	         -0.26267394	          0.99744946	          1.20525098	         -0.26520154	          1.06909251	          0.55278093	         -0.09764139	          1.18238032	          0.67407244	         -0.32553604	          1.03308177	          0.57849032	         -0.11806261	          1.13623261	          0.66563159	         -0.33642328	          1.00334084	          0.50787193	         -0.13710156	          1.15814400	          0.59518623	         -0.33419162	          0.96048129	          0.19061060	         -0.17265716	          0.97496730	          0.20161986	         -0.41992024	          0.91389412	          0.19998510	         -0.18693715	          0.98256928	          0.21697907	         -0.37379581	          0.95900732	          0.04258410	         -0.19847004	          1.03323889	          0.06585659	         -0.32197332	
          0.83333337	          1.05181456	          0.85403937	         -0.23208241	         -1.62798786	         -0.73159951	         -2.61742592	          0.84408092	          6.54777527	          1.69710660	         -9.92409706	          6.09748745	          0.00000000	          0.00000000	         30.49810410	         -5.81766033	          1.07626271	        -52.04174042	          5.91797638	          0.00000000	          0.00000000	         -8.98721409	          3.47430539	          2.76537395	         -6.01754853	        650.86363080	        -16.48626780	          0.93533765	          0.00000000	         -0.19720715	          0.00000000	          0.00000000	          0.00000000	          0.36454813	          0.00000000	         -0.29258401	          0.00000000	          4.67043164	          0.00000000	          0.00000000	          0.00000000	          0.00000000	          0.94707274	          0.77322829	         -0.23581316	          0.92424172	          0.77800643	         -0.15770203	          0.93068099	          0.77440268	         -0.31315610	          0.92095029	          0.41581583	         -0.19096547	          1.12116158	          0.43081933	         -0.33724126	          0.85547841	          0.06170471	         -0.20470086	          0.98156452	          0.10133948	         -0.30531701	          1.05181456	          0.85403937	         -0.23208241	          1.04674518	          0.85687643	         -0.10970142	          1.05688393	          0.85120231	         -0.35446340	          0.80568880	          0.91547382	         -0.21379235	          0.80576038	          0.91171539	         -0.26673165	          0.92001516	          0.40928578	         -0.11977042	          1.12178493	          0.43616286	         -0.40853861	          0.90610832	          0.43209049	         -0.27444375	          1.12719941	          0.41885644	         -0.24378958	          0.84651947	          0.06190879	         -0.16725828	          0.96626109	          0.10430675	         -0.34161097	          0.86662155	          0.06578848	         -0.23996982	          0.98443896	          0.12004980	         -0.26554850	          0.84392041	          1.34531689	         -0.23925257	          0.97154379	          1.28061509	         -0.20836805	          0.97192365	          1.28438282	         -0.29203397	          0.95481926	          1.27685368	         -0.26264712	          1.00838578	          1.20469439	         -0.26451656	          1.07440805	          0.54996562	         -0.09657290	          1.19392538	          0.67636520	         -0.32234374	          1.03882623	          0.57575423	         -0.11806989	          1.14858294	          0.66877073	         -0.33547139	          1.00783134	          0.50508463	         -0.13735360	          1.17038357	          0.59714204	         -0.33121607	          0.96205062	          0.18979506	         -0.17305665	          1.00250125	          0.19689666	         -0.41845629	          0.91592509	          0.19972332	         -0.18784073	          1.00945592	          0.21196286	         -0.37227377	          0.95909446	          0.04257426	         -0.19857194	          1.06962800	          0.06488050	         -0.32187656	
          0.84166670	          1.06256700	          0.85293722	         -0.23188563	         -1.78710556	         -0.46573365	         -2.89315891	          0.08807850	          6.27120924	          1.38007927	         -9.65922451	          6.58726692	          0.00000000	          0.00000000	         31.11637497	         -5.41256666	          1.49737477	        -48.89402008	          6.25004673	          0.00000000	          0.00000000	         -8.77300167	          3.24401188	          3.33274221	         -3.29580244	        654.15115663	        -16.37579374	          0.94038245	          0.00000000	         -0.19789235	          0.00000000	          0.00000000	          0.00000000	          0.36805600	          0.00000000	         -0.29135880	          0.00000000	          5.10625977	          0.00000000	          0.00000000	          0.00000000	          0.00000000	          0.95763421	          0.77234066	         -0.23649263	          0.93436027	          0.77700406	         -0.15849964	          0.94168806	          0.77390510	         -0.31392527	          0.92543781	          0.41529167	         -0.19144727	          1.13487279	          0.43209335	         -0.33513969	          0.85587627	          0.06198020	         -0.20519593	          1.01558912	          0.09501360	         -0.30430886	          1.06256700	          0.85293722	         -0.23188563	          1.05679989	          0.85537612	         -0.10956477	          1.06833398	          0.85049826	         -0.35420647	          0.81654269	          0.91510290	         -0.21458967	          0.81672668	          0.91131294	         -0.26765576	          0.92357844	          0.40885338	         -0.12026200	          1.13655329	          0.43746698	         -0.40641764	          0.91535157	          0.42753091	         -0.27370828	          1.14680278	          0.41836119	         -0.24118385	          0.84685975	          0.06229895	         -0.16776799	          0.99987793	          0.09726501	         -0.34047985	          0.86657172	          0.06633370	         -0.24058169	          1.01765513	          0.11339133	         -0.26437011	          0.85485291	          1.34466255	         -0.23916316	          0.98246217	          1.27971447	         -0.20884216	          0.98243976	          1.28351414	         -0.29142842	          0.96584719	          1.27626050	         -0.26258451	          1.01889002	          1.20375693	         -0.26470587	          1.07983315	          0.54729563	         -0.09549165	          1.20525086	          0.67798054	         -0.31907734	          1.04483151	          0.57354689	         -0.11803699	          1.15824330	          0.66899401	         -0.33194456	          1.01484990	          0.50409728	         -0.13603619	          1.18235326	          0.59866881	         -0.32842889	          0.96373105	          0.18895565	         -0.17346346	          1.02998316	          0.19236091	         -0.41704950	          0.91714972	          0.19977182	         -0.18823387	          1.03612959	          0.20682825	         -0.37077630	          0.95916861	          0.04256286	         -0.19863029	          1.10585356	          0.06446370	         -0.32172239	
          0.85000002	          1.07335854	          0.85164499	         -0.23174123	         -1.98644638	         -0.21095458	         -3.20219564	         -0.57310867	          5.98455906	          1.08269048	         -9.50289536	          7.09442425	          0.00000000	          0.00000000	         31.66783524	         -5.03532219	          1.94026458	        -45.57119751	          6.40901327	          0.00000000	          0.00000000	         -8.55666161	          3.10233665	          3.84191561	         -0.34084175	        657.39224203	        -17.61844723	          0.94540942	          0.00000000	         -0.19857217	          0.00000000	          0.00000000	          0.00000000	          0.37167923	          0.00000000	         -0.29001572	          0.00000000	          5.40905664	          0.00000000	          0.00000000	          0.00000000	          0.00000000	          0.96817821	          0.77135271	         -0.23726365	          0.94443107	          0.77593488	         -0.15939479	          0.95272851	          0.77327865	         -0.31477985	          0.93022352	          0.41470405	         -0.19188081	          1.14794469	          0.43287030	         -0.33306980	          0.85624498	          0.06231816	         -0.20566358	          1.04972661	          0.08931880	         -0.30342188	          1.07335854	          0.85164499	         -0.23174123	          1.06682360	          0.85373700	         -0.10936305	          1.07989335	          0.84955293	         -0.35411942	          0.82747316	          0.91472548	         -0.21555737	          0.82780635	          0.91089094	         -0.26877990	          0.92744565	          0.40841299	         -0.12071231	          1.15074110	          0.43830156	         -0.40430835	          0.91860676	          0.42764691	         -0.27225456	          1.15737724	          0.41789949	         -0.24245878	          0.84718782	          0.06275611	         -0.16824666	          1.03364706	          0.09080482	         -0.33947039	          0.86664182	          0.06694129	         -0.24112633	          1.05122817	          0.10725373	         -0.26334396	          0.86590558	          1.34381986	         -0.23930959	          0.99350470	          1.27880335	         -0.20899282	          0.99323827	          1.28274202	         -0.29113162	          0.97689027	          1.27548850	         -0.26253980	          1.02974904	          1.20293558	         -0.26489234	          1.08540499	          0.54476881	         -0.09441346	          1.21635985	          0.67891455	         -0.31575334	          1.05141532	          0.57221651	         -0.11741794	          1.17001319	          0.66953999	         -0.32945779	          1.01921523	          0.50264013	         -0.13497311	          1.19400632	          0.59974402	         -0.32653740	          0.96552670	          0.18808801	         -0.17386237	          1.05737865	          0.18807121	         -0.41571313	          0.91915941	          0.19957861	         -0.18840787	          1.06301463	          0.20220459	         -0.36921656	          0.95924741	          0.04254042	         -0.19866495	          1.14176774	          0.06464273	         -0.32152078	
